<svg width="14" height="12" viewBox="0 0 14 12" fill="none" xmlns="http://www.w3.org/2000/svg">
<path opacity="0.5" d="M6.5999 1.84485L7 2.3787L7.4001 1.84485C8.00694 1.03515 8.99954 0.5 10.14 0.5C12.0151 0.5 13.5 1.94993 13.5 3.69299C13.5 3.93612 13.4664 4.17855 13.412 4.42216L13.4092 4.43474L13.4071 4.44745C13.1611 5.89836 12.1756 7.44607 10.8841 8.7642C9.65265 10.0211 8.20278 11.0081 6.99968 11.4678C5.79243 11.0082 4.3426 10.0212 3.1123 8.76437C1.82229 7.4465 0.838922 5.89872 0.592945 4.44745L0.590823 4.43493L0.588069 4.42254C0.533619 4.17752 0.5 3.93503 0.5 3.69299C0.5 1.94993 1.98486 0.5 3.85999 0.5C5.00046 0.5 5.99306 1.03515 6.5999 1.84485Z" fill="#2E8256" stroke="#2E8256"/>
</svg>
