<svg width="228" height="257" viewBox="0 0 228 257" fill="none" xmlns="http://www.w3.org/2000/svg">
<circle cx="114.622" cy="127.599" r="18.2865" fill="#2E8256"/>
<circle cx="209.713" cy="71.1149" r="18.2865" fill="#2E8256"/>
<circle cx="209.713" cy="183.271" r="18.2865" fill="#2E8256"/>
<circle cx="19.5365" cy="182.865" r="18.2865" fill="#2E8256"/>
<circle cx="114.828" cy="238.13" r="18.2865" fill="#2E8256"/>
<circle cx="18.724" cy="73.1459" r="18.2865" fill="#2E8256"/>
<circle cx="114.622" cy="18.2865" r="18.2865" fill="#2E8256"/>
<rect x="111.621" y="144.259" width="6.29868" height="81.2733" fill="#2E8256"/>
<path d="M34.9791 186.929L102.03 225.534L97.9659 233.661L32.9473 195.056L34.9791 186.929Z" fill="#2E8256"/>
<path d="M34.9812 77.2102L106.095 117.847L102.032 125.974L28.8857 83.3057L34.9812 77.2102Z" fill="#2E8256"/>
<path d="M126.411 227.565L193.462 188.96L197.525 195.056L130.475 233.661L126.411 227.565Z" fill="#2E8256"/>
<path d="M126.411 115.326L193.462 76.7212L197.525 82.8167L130.475 121.422L126.411 115.326Z" fill="#2E8256"/>
<path d="M30.9189 62.9867L100.001 22.3501L104.065 28.4456L34.9826 69.0822L30.9189 62.9867Z" fill="#2E8256"/>
</svg>
