<svg width="73" height="63" viewBox="0 0 73 63" fill="none" xmlns="http://www.w3.org/2000/svg">
<path fill-rule="evenodd" clip-rule="evenodd" d="M34.3837 6.65058L24.6615 15.7104C23.8565 16.4606 22.5251 16.4606 21.7201 15.7104C20.8995 14.9458 20.8995 13.7195 21.7201 12.9549L35.0029 0.577057C35.39 0.20197 35.9163 0 36.4737 0C37.0155 0 37.5573 0.216396 37.9444 0.577057L51.2273 12.9549C52.0478 13.7195 52.0478 14.9458 51.2273 15.7104C50.8248 16.0999 50.2984 16.2874 49.7565 16.2874C49.2302 16.2874 48.6883 16.0855 48.2858 15.7104L38.5636 6.65058V46.1646C38.5636 47.2465 37.6348 48.1121 36.4737 48.1121C35.3126 48.1121 34.3837 47.2465 34.3837 46.1646V6.65058ZM68.7676 32.6612C68.7676 31.5792 69.6965 30.7136 70.8576 30.7136C72.0187 30.7136 72.9475 31.5937 72.9475 32.6612V50.3769C72.9475 57.3304 66.8789 63 59.4015 63H13.5461C6.08412 63 0 57.3448 0 50.3769V32.3727C0 31.2907 0.928874 30.4251 2.08997 30.4251C3.25106 30.4251 4.17993 31.2907 4.17993 32.3727V50.3769C4.17993 55.1809 8.37534 59.1049 13.5461 59.1049H59.4015C64.5567 59.1049 68.7676 55.1953 68.7676 50.3769V32.6612Z" fill="white"/>
</svg>
