<svg width="82" height="65" viewBox="0 0 82 65" fill="none" xmlns="http://www.w3.org/2000/svg">
<path d="M49.9508 23.6044C54.8908 28.5486 54.8908 36.575 49.9508 41.5277C45.0108 46.4719 36.9886 46.4719 32.0486 41.5277C27.1086 36.5835 27.1086 28.5571 32.0486 23.6044C36.9886 18.6517 45.0108 18.6517 49.9508 23.6044Z" stroke="white" stroke-width="5" stroke-linecap="round" stroke-linejoin="round"/>
<path d="M3 32.5556C3 29.7731 3.63313 27.0203 4.89979 24.4827C11.2753 11.4065 25.42 3 41 3C56.58 3 70.7247 11.4065 77.1002 24.4827C78.3669 27.0203 79 29.7731 79 32.5556C79 35.338 78.3669 38.0908 77.1002 40.6284C70.7247 53.7046 56.58 62.1111 41 62.1111C25.42 62.1111 11.2753 53.7046 4.89979 40.6284C3.63313 38.0908 3 35.338 3 32.5556Z" stroke="white" stroke-width="5" stroke-linecap="round" stroke-linejoin="round"/>
</svg>
